<?xml version="1.0"?><svg width="360" height="280" xmlns="http://www.w3.org/2000/svg">
 <title>Brown Bumble Bee</title>
 <metadata id="metadata6402">image/svg+xml</metadata>
 <g>
  <title>Layer 1</title>
  <g id="layer1">
   <g id="g6306" transform="matrix(21.9197 0 0 21.7272 -3090.87 -2707.92)" fill="#000000" opacity="0.6">
    <path id="path6279" d="m149.174835,128.080551c-1.107483,0.000015 -1.952499,0.752457 -2.46875,1.625c-0.516205,0.872528 -0.8125,1.945023 -0.8125,3.125c-0.000015,1.179977 0.296265,2.283722 0.8125,3.15625c0.516266,0.872513 1.361237,1.625 2.46875,1.625c1.107498,0.000015 1.983749,-0.752472 2.5,-1.625c0.516235,-0.872528 0.78125,-1.976273 0.78125,-3.15625c0.000015,-1.179977 -0.26503,-2.252472 -0.78125,-3.125c-0.516235,-0.872543 -1.392517,-1.625 -2.5,-1.625zm0,1.125c1.397369,0 2.53125,1.731537 2.53125,3.84375c0,2.112213 -1.133911,3.8125 -2.53125,3.8125c-1.397354,0.000015 -2.53125,-1.700287 -2.53125,-3.8125c0,-2.112213 1.133896,-3.84375 2.53125,-3.84375z" stroke-dashoffset="0" stroke-miterlimit="4" stroke-linejoin="round" stroke-width="4.399761" fill="#fff600"/>
    <path id="path5951" d="m149.185349,130.019379c-1.325272,0 -2.500366,0.713394 -3.218018,1.829376c-0.039063,0.349991 -0.056839,0.714752 -0.06308,1.084091c0.708679,-1.026138 1.907318,-1.693878 3.281097,-1.693878c1.359161,0 2.554642,0.652054 3.260071,1.660019c-0.006348,-0.346344 -0.029251,-0.687088 -0.063095,-1.016357c-0.710663,-1.124298 -1.865875,-1.863251 -3.196976,-1.863251z" stroke-dashoffset="0" stroke-miterlimit="4" stroke-linejoin="round" stroke-width="3" fill="#fff600"/>
    <path id="path5956" d="m148.620438,134.455765c-0.822937,0.107391 -1.562027,0.484711 -2.179321,0.99408c0.075546,0.149719 0.139404,0.320709 0.229401,0.458801c0.076584,0.117538 0.176285,0.2332 0.267624,0.344101c0.653183,-0.340012 1.405289,-0.535263 2.21759,-0.535263c0.812271,0 1.563705,0.195267 2.21756,0.535263c0.091339,-0.110901 0.191025,-0.226563 0.267639,-0.344101c0.09314,-0.142914 0.191101,-0.303482 0.267624,-0.458801c-0.748093,-0.626938 -1.708084,-0.99408 -2.752823,-0.99408c-0.188278,0 -0.353409,-0.023743 -0.535294,0z" stroke-dashoffset="0" stroke-miterlimit="4" stroke-linejoin="round" stroke-width="3" fill="#fff600"/>
    <path id="path5958" d="m149.162964,132.180817c-1.252579,0 -2.182449,0.591461 -3.024155,1.445892c0.047867,0.354477 -0.068619,0.639435 0.041901,0.962845c0.811432,-0.62056 1.845795,-0.994095 2.982254,-0.994095c1.136459,0 2.174561,0.373535 2.982254,0.994095c0.10701,-0.32341 0.028015,-0.608368 0.073151,-0.962845c-0.836899,-0.860367 -1.795288,-1.445892 -3.055405,-1.445892z" stroke-dashoffset="0" stroke-miterlimit="4" stroke-linejoin="round" stroke-width="3" fill="#fff600"/>
    <path id="path5883" d="m149.186737,124.724716c-1.597748,0 -2.90538,1.109116 -2.905365,2.500534c0,0.852341 0.490875,1.614517 1.238358,2.071869c0.151718,-0.361176 0.78627,-0.643005 1.571747,-0.643005c0.841583,0 1.536072,0.314835 1.6194,0.714447c0.816422,-0.446228 1.357422,-1.240219 1.357422,-2.143311c0,-1.391418 -1.283813,-2.500534 -2.881561,-2.500534zm-1.83371,1.452705c0.270615,0 0.476288,0.373436 0.476288,0.833504c-0.000015,0.46006 -0.205673,0.833504 -0.476288,0.833504c-0.270645,0.000008 -0.500107,-0.373444 -0.500107,-0.833504c0,-0.460068 0.229492,-0.833504 0.500107,-0.833504zm3.643616,0c0.27063,0 0.500107,0.373436 0.500107,0.833504c0,0.46006 -0.229492,0.833504 -0.500107,0.833504c-0.27063,0.000008 -0.476288,-0.373444 -0.476288,-0.833504c0,-0.460068 0.205658,-0.833504 0.476288,-0.833504z" stroke-dashoffset="0" stroke-miterlimit="4" stroke-linejoin="round" stroke-width="3" fill="#fff600"/>
    <g transform="matrix(1.22349 0 0 1.22349 -35.1992 -30.8595)" id="g6140" fill="#000000">
     <path id="path6132" d="m145.670166,128.394669c0.800186,0.056595 2.010223,0.392563 3.386826,1.187332c0.128357,0.074112 0.22995,0.157974 0.350357,0.233566c-0.132599,0.113235 -0.242554,0.242096 -0.350357,0.369827c-0.079483,-0.05014 -0.150482,-0.107727 -0.233582,-0.155716c-0.818756,-0.472702 -1.6521,-0.742096 -2.335739,-0.798035c-0.683624,-0.055939 -1.21669,0.099197 -1.440369,0.486603c-0.447342,0.774841 0.718872,1.89975 2.3564,2.845184c0.110489,0.063797 0.308914,0.191559 0.420609,0.246948c-0.01535,0.017365 -0.331528,0.236099 -0.343948,0.255768c-0.111069,-0.060791 -0.215881,-0.10878 -0.330902,-0.175186c-1.376587,-0.794769 -2.29538,-1.671051 -2.744476,-2.335739c-0.449112,-0.664673 -0.52652,-1.20932 -0.291977,-1.615555c0.234543,-0.406219 0.756973,-0.601593 1.557159,-0.544998zm2.588776,4.96344c0.009674,0.038055 0.012039,0.077484 0.01947,0.116791c-0.012604,-0.005539 -0.026321,-0.013855 -0.03894,-0.01947c0.013794,-0.032593 0.014038,-0.061234 0.01947,-0.097321z" stroke-dashoffset="0" stroke-miterlimit="4" stroke-linejoin="round" stroke-width="4.970615" fill="#fff600"/>
     <path id="path6134" d="m148.436127,132.409851c-0.023895,0.090195 -0.070206,0.174667 -0.088287,0.266937c-0.006363,0.002518 0.001556,0.022049 -0.004807,0.024567c-1.74469,0.692657 -2.796753,1.651672 -2.399994,2.325684c0.331619,0.563339 1.557007,0.765305 3.084045,0.617035c0.024582,0.033264 0.02565,0.072174 0.051468,0.104965c0.036255,0.046082 0.077988,0.090546 0.117371,0.136246c-0.811752,0.121841 -1.553207,0.173691 -2.15332,0.146698c-1.070389,-0.048172 -1.799911,-0.285599 -2.055634,-0.719986c-0.255707,-0.434402 0.017349,-0.976669 0.732224,-1.532425c0.583649,-0.45372 1.509949,-0.949585 2.716934,-1.36972z" stroke-dashoffset="0" stroke-miterlimit="4" stroke-linejoin="round" stroke-width="1.884312" fill="#fff600"/>
    </g>
    <g transform="matrix(-1.22349 0 0 1.22349 350.199 -30.8595)" id="g6144" fill="#000000">
     <path d="m159.279053,128.394669c0.800186,0.056595 2.010223,0.392563 3.386826,1.187332c0.128357,0.074112 0.22995,0.157974 0.350357,0.233566c-0.132599,0.113235 -0.242554,0.242096 -0.350357,0.369827c-0.079483,-0.05014 -0.150482,-0.107727 -0.233582,-0.155716c-0.818756,-0.472702 -1.6521,-0.742096 -2.335739,-0.798035c-0.683624,-0.055939 -1.21669,0.099197 -1.440369,0.486603c-0.447342,0.774841 0.718872,1.89975 2.3564,2.845184c0.110489,0.063797 0.308914,0.191559 0.420609,0.246948c-0.01535,0.017365 -0.331528,0.236099 -0.343948,0.255768c-0.111069,-0.060791 -0.215881,-0.10878 -0.330902,-0.175186c-1.376587,-0.794769 -2.29538,-1.671051 -2.744476,-2.335739c-0.449112,-0.664673 -0.52652,-1.20932 -0.291977,-1.615555c0.234543,-0.406219 0.756973,-0.601593 1.557159,-0.544998zm2.588776,4.96344c0.009674,0.038055 0.012039,0.077484 0.01947,0.116791c-0.012604,-0.005539 -0.026321,-0.013855 -0.03894,-0.01947c0.013794,-0.032593 0.014038,-0.061234 0.01947,-0.097321z" id="path6146" stroke-dashoffset="0" stroke-miterlimit="4" stroke-linejoin="round" stroke-width="4.970615" fill="#fff600"/>
     <path d="m162.045013,132.409851c-0.023895,0.090195 -0.070206,0.174667 -0.088287,0.266937c-0.006363,0.002518 0.001556,0.022049 -0.004807,0.024567c-1.74469,0.692657 -2.796753,1.651672 -2.399994,2.325684c0.331619,0.563339 1.557007,0.765305 3.084045,0.617035c0.024582,0.033264 0.02565,0.072174 0.051468,0.104965c0.036255,0.046082 0.077988,0.090546 0.117371,0.136246c-0.811752,0.121841 -1.553207,0.173691 -2.15332,0.146698c-1.070389,-0.048172 -1.799911,-0.285599 -2.055634,-0.719986c-0.255707,-0.434402 0.017349,-0.976669 0.732224,-1.532425c0.583649,-0.45372 1.509949,-0.949585 2.716934,-1.36972z" id="path6148" stroke-dashoffset="0" stroke-miterlimit="4" stroke-linejoin="round" stroke-width="1.884312" fill="#fff600"/>
    </g>
   </g>
  </g>
 </g>
</svg>